<?xml version="1.0" encoding="UTF-8"?>
<svg width="400px" height="400px" viewBox="0 0 400 400" version="1.1" xmlns="http://www.w3.org/2000/svg" xmlns:xlink="http://www.w3.org/1999/xlink">
    <title>Artboard Copy 12</title>
    <g id="Artboard-Copy-12" stroke="none" stroke-width="1" fill="none" fill-rule="evenodd">
        <g id="Group" transform="translate(37.253, 34.6472)" fill-rule="nonzero" stroke-width="16">
            <g id="E" transform="translate(0, 8.8564)" fill="#A12020" stroke="#A12020">
                <path d="M53.1383178,37.3508466 C50.5712493,37.3508466 48.2608876,38.6343808 46.2072329,41.2014493 L46.2072329,142.857362 L100.500731,142.857362 L100.500731,152.098808 L81.2477178,161.725315 L46.2072329,161.725315 L46.2072329,200.231342 C46.2072329,228.725803 49.0310082,245.411748 54.6785589,250.289178 C63.1498849,257.47697 72.3913315,261.584279 82.4028986,262.611107 C92.4144657,263.637934 103.196153,264.151348 114.747962,264.151348 L114.747962,275.318096 C113.464427,275.318096 103.966274,278.847815 86.2535013,285.907253 C68.5407287,292.966692 57.7590411,296.496411 53.9084383,296.496411 C45.950526,296.496411 34.9763082,290.335446 20.9857849,278.013518 C6.99526164,265.691589 0,252.342833 0,237.967249 L0,35.4255452 C0,33.6285972 14.6964671,27.2751027 44.0894013,16.3650616 C73.4823356,5.45502055 90.3608109,0 94.7248273,0 C96.2650684,0 98.0620164,3.72224931 100.115671,11.1667479 C102.169326,18.6112466 104.543864,27.5959863 107.239286,38.1209671 C109.934708,48.6459479 112.758484,56.4113301 115.710612,61.4171137 C118.662741,66.4228972 124.246115,68.925789 132.460734,68.925789 L132.460734,76.6269945 C126.813183,79.194063 117.250853,83.7506095 103.773744,90.2966342 C90.2966342,96.8426589 83.0446657,100.115671 82.0178383,100.115671 C78.1672356,100.115671 73.2898054,89.6548671 67.3855479,68.7332589 C61.4812904,47.8116507 56.7322137,37.3508466 53.1383178,37.3508466 Z" id="Path"></path>
            </g>
            <g id="T" transform="translate(147.4135, 0)" fill="#6C4839" stroke="#6C4839">
                <path d="M69.3108493,266.076649 L69.3108493,61.9947041 L81.2477178,50.4428959 L56.9889205,50.4428959 C41.3298027,50.4428959 32.4734164,54.6785589 30.4197616,63.1498849 L21.9484356,63.1498849 L0,31.5749424 C3.08048219,26.6975123 7.05943835,22.3334959 11.9368685,18.4828931 C16.8142986,14.6322904 21.5633753,12.706989 26.1840986,12.706989 L127.840011,12.706989 C143.499129,12.706989 152.355515,8.47132602 154.40917,0 L162.880496,0 L184.828931,31.5749424 C181.748449,36.4523726 177.769493,40.816389 172.892063,44.6669918 C168.014633,48.5175945 163.265556,50.4428959 158.644833,50.4428959 L115.518082,50.4428959 L115.518082,246.053515 C115.518082,255.551668 116.54491,262.3544 118.598564,266.461709 C120.652219,270.569019 124.887882,272.622674 131.305553,272.622674 L131.305553,284.559542 L52.3681972,317.674726 L46.2072329,305.352797 C51.8547835,305.352797 57.2456274,302.015608 62.3797644,295.34123 C67.0004876,288.923559 69.3108493,279.168698 69.3108493,266.076649 Z" id="Path"></path>
            </g>
        </g>
    </g>
</svg>