<?xml version="1.0" encoding="UTF-8"?>
<svg width="399px" height="326px" viewBox="0 0 399 326" version="1.1" xmlns="http://www.w3.org/2000/svg" xmlns:xlink="http://www.w3.org/1999/xlink">
    <title>Artboard Copy 8</title>
    <defs>
        <linearGradient x1="50%" y1="25.9060275%" x2="50%" y2="112.416782%" id="linearGradient-1">
            <stop stop-color="#C3AD99" offset="0%"></stop>
            <stop stop-color="#907460" offset="100%"></stop>
        </linearGradient>
    </defs>
    <g id="Artboard-Copy-8" stroke="none" stroke-width="1" fill="none" fill-rule="evenodd">
        <g id="Group-8-Copy" transform="translate(1, -0.3963)">
            <g id="Group" transform="translate(13.9535, 0)" fill="url(#linearGradient-1)">
                <path d="M183.49958,218.524397 C183.49958,218.524397 190.2451,203.71656 203.069405,186.065859 C209.126862,177.728693 223.220928,164.306895 228.116505,153.799478 C232.66487,140.767813 232.921577,132.959308 234.552819,119.415362 C236.475898,111.755336 240.040609,100.615386 245.246951,85.9955111 C242.720173,97.6112211 241.456784,106.226839 241.456784,111.842364 C241.456784,117.457889 243.656154,125.083351 248.054892,134.71875 C254.878258,142.833726 260.60238,148.645827 265.22726,152.155055 C272.16458,157.418897 281.662688,164.9408 286.905491,164.9408 C292.148294,164.9408 306.314131,153.191513 315.305946,145.006686 C321.300489,139.550135 329.538705,130.078778 340.020592,116.592617 C345.806023,103.993429 349.96798,93.7943933 352.506464,85.9955111 C355.044948,78.1966288 358.094661,66.2395358 361.655604,50.124232 L368.521979,0 L368.521979,218.524397 C245.173713,218.524397 183.49958,218.524397 183.49958,218.524397 Z" id="Path" transform="translate(276.0108, 109.2622) scale(-1, 1) translate(-276.0108, -109.2622)"></path>
                <path d="M0,218.524397 C0,218.524397 6.74551963,203.71656 19.5698245,186.065859 C25.6272813,177.728693 39.7213473,164.306895 44.6169247,153.799478 C49.1652898,140.767813 49.4219962,132.959308 51.0532382,119.415362 C52.976318,111.755336 56.5410287,100.615386 61.7473704,85.9955111 C59.2205928,97.6112211 57.957204,106.226839 57.957204,111.842364 C57.957204,117.457889 60.1565733,125.083351 64.5553118,134.71875 C71.3786772,142.833726 77.1027999,148.645827 81.72768,152.155055 C88.6650001,157.418897 98.1631079,164.9408 103.405911,164.9408 C108.648714,164.9408 122.814551,153.191513 131.806366,145.006686 C137.800909,139.550135 146.039124,130.078778 156.521012,116.592617 C162.306443,103.993429 166.4684,93.7943933 169.006884,85.9955111 C171.545367,78.1966288 174.595081,66.2395358 178.156024,50.124232 L185.022398,0 L185.022398,218.524397 C61.6741328,218.524397 0,218.524397 0,218.524397 Z" id="Path"></path>
            </g>
            <g id="Group-3" transform="translate(0, 187.3963)">
                <path d="M375.264638,1.80580833 C375.701561,7.38347299 378.145117,12.3974001 381.873858,16.1261417 C385.6026,19.8548833 390.616527,22.2984393 396.194192,22.7353617 L396.194192,91.2646383 C390.616527,91.7015607 385.6026,94.1451167 381.873858,97.8738583 C378.145117,101.6026 375.701561,106.616527 375.264638,112.194192 L22.7353617,112.194192 C22.2984393,106.616527 19.8548833,101.6026 16.1261417,97.8738583 C12.3974001,94.1451167 7.38347299,91.7015607 1.80580833,91.2646383 L1.80580833,22.7353617 C7.38347299,22.2984393 12.3974001,19.8548833 16.1261417,16.1261417 C19.8548833,12.3974001 22.2984393,7.38347299 22.7353617,1.80580833 Z" id="Rectangle" stroke="#A18772" stroke-width="3.61161666" fill="#FEF7EE"></path>
                <text id="The-Eftel-Times" font-family="PirataOne-Regular, Pirata One" font-size="62.4239481" font-weight="normal">
                    <tspan x="38.324408" y="71" fill="#A12020">T</tspan>
                    <tspan x="61.1091491" y="71" fill="#6C4839">he </tspan>
                    <tspan x="126.342175" y="71" fill="#A12020">E</tspan>
                    <tspan x="151.56145" y="71" fill="#6C4839">ftel </tspan>
                    <tspan x="237.394379" y="71" fill="#A12020">T</tspan>
                    <tspan x="260.17912" y="71" fill="#6C4839">imes</tspan>
                </text>
            </g>
        </g>
        <g id="Wachttijden-in-den-E" transform="translate(67.2646, 269.4258)" fill="#6C4839" fill-rule="nonzero">
            <path d="M6.19031866,15.7577243 C5.73618449,15.7577243 5.36987397,15.6499534 5.0913871,15.4344114 C4.81290024,15.2188694 4.58943475,14.8792662 4.42099065,14.4156016 L0.120679153,2.34713561 C-0.0708151974,1.79991391 -0.0344113235,1.33696967 0.229890775,0.95830289 C0.494192873,0.579636111 0.948714909,0.390302721 1.59345688,0.390302721 C2.05202379,0.390302721 2.40769574,0.49674388 2.66047271,0.709626199 C2.91324969,0.922508518 3.11455147,1.25590594 3.26437807,1.70981848 L6.76746135,12.1588939 L5.84988426,12.1588939 L9.55676274,1.71779741 C9.72520684,1.26388488 9.93581738,0.929157628 10.1885944,0.713615665 C10.4413713,0.498073702 10.769117,0.390302721 11.1718314,0.390302721 C11.5743242,0.390302721 11.897083,0.498073702 12.140108,0.713615665 C12.3831329,0.929157628 12.5844347,1.27097726 12.7440133,1.73907456 L16.2833343,12.1588939 L15.4920902,12.1588939 L19.0659865,1.70981848 C19.2158131,1.26565797 19.4160067,0.934698552 19.6665673,0.71694022 C19.9171279,0.499181887 20.2644885,0.390302721 20.708649,0.390302721 C21.2647362,0.390302721 21.6702764,0.579636111 21.9252698,0.95830289 C22.1802631,1.33696967 22.2097963,1.79991391 22.0138692,2.34713561 L17.6776525,14.4368788 C17.5136411,14.8863586 17.2959382,15.2188694 17.0245437,15.4344114 C16.7531492,15.6499534 16.3881685,15.7577243 15.9296016,15.7577243 C15.4754675,15.7577243 15.1115949,15.6499534 14.8379841,15.4344114 C14.5643732,15.2188694 14.3455621,14.8792662 14.1815508,14.4156016 L10.8260777,4.90837255 L11.3353995,4.90837255 L7.92374147,14.4368788 C7.75529737,14.8863586 7.53892427,15.2188694 7.27462217,15.4344114 C7.01032007,15.6499534 6.64888557,15.7577243 6.19031866,15.7577243 Z" id="Path"></path>
            <path d="M26.1380066,15.8002786 C25.3593959,15.8002786 24.6679993,15.6526684 24.0638169,15.357448 C23.4596345,15.0622275 22.9875478,14.6608429 22.6475566,14.1532942 C22.3075655,13.6457456 22.13757,13.0710409 22.13757,12.4291802 C22.13757,11.6632028 22.3361567,11.0579122 22.7333302,10.6133084 C23.1305036,10.1687046 23.7736941,9.84821755 24.6629017,9.65184719 C25.5521093,9.45547682 26.7374238,9.35729164 28.2188454,9.35729164 L29.3358958,9.35729164 L29.3358958,11.015912 L28.2268243,11.015912 C27.5071691,11.015912 26.9260369,11.0573581 26.4834278,11.1402503 C26.0408188,11.2231426 25.7218278,11.356291 25.5264548,11.5396956 C25.3310818,11.7231002 25.2333953,11.9724972 25.2333953,12.2878866 C25.2333953,12.6894928 25.3731928,13.018125 25.6527879,13.2737833 C25.9323829,13.5294416 26.3296118,13.6572707 26.8444745,13.6572707 C27.2547245,13.6572707 27.6195944,13.5629087 27.9390841,13.3741848 C28.2585738,13.185461 28.5136226,12.9251483 28.7042304,12.593247 C28.8948382,12.2613456 28.9901421,11.8781906 28.9901421,11.4437822 L28.9901421,8.9902608 C28.9901421,8.37433164 28.8474079,7.93587828 28.5619394,7.67490074 C28.276471,7.41392319 27.7894237,7.28343442 27.1007977,7.28343442 C26.7204686,7.28343442 26.3060629,7.32754018 25.8575804,7.4157517 C25.409098,7.50396322 24.9202222,7.65755764 24.3909531,7.87653498 C24.068028,8.00863062 23.7871032,8.03627983 23.5481785,7.95948262 C23.3092538,7.88268541 23.1252397,7.7412256 22.9961362,7.53510321 C22.8670327,7.32898082 22.8035891,7.10174751 22.8058054,6.85340327 C22.8080218,6.60505904 22.8814391,6.36474914 23.0260572,6.13247359 C23.1706753,5.90019803 23.4043361,5.72543727 23.7270396,5.60819131 C24.3886259,5.34754622 25.0152491,5.16608095 25.606909,5.06379548 C26.1985689,4.96151002 26.7381996,4.91036728 27.2258009,4.91036728 C28.3182496,4.91036728 29.217597,5.07194064 29.9238433,5.39508736 C30.6300895,5.71823407 31.1585275,6.2098803 31.5091572,6.87002605 C31.8597869,7.53017179 32.0351017,8.37665882 32.0351017,9.40948715 L32.0351017,14.1227083 C32.0351017,14.6513125 31.9076605,15.0559663 31.6527779,15.3366695 C31.3978954,15.6173727 31.0296456,15.7577243 30.5480284,15.7577243 C30.0664113,15.7577243 29.6945598,15.6173727 29.4324741,15.3366695 C29.1703884,15.0559663 29.0393455,14.6513125 29.0393455,14.1227083 L29.0393455,13.3347889 L29.1896154,13.4747526 C29.1036202,13.9490558 28.9229861,14.3592504 28.647713,14.7053365 C28.3724398,15.0514227 28.0227521,15.3204346 27.5986497,15.5123722 C27.1745474,15.7043098 26.6876663,15.8002786 26.1380066,15.8002786 Z" id="Path"></path>
            <path d="M39.242,15.8002786 C38.1096567,15.8002786 37.1225964,15.5779767 36.2808192,15.133373 C35.4390419,14.6887692 34.7882603,14.0540009 34.3284744,13.229068 C33.8686885,12.4041352 33.6387956,11.4340301 33.6387956,10.3187529 C33.6387956,9.47741888 33.7685086,8.72363152 34.0279347,8.05739076 C34.2873608,7.39114999 34.6622043,6.8242026 35.1524653,6.35654857 C35.6427263,5.88889455 36.2334443,5.53095083 36.9246192,5.28271741 C37.6157941,5.03448399 38.3882544,4.91036728 39.242,4.91036728 C39.6835009,4.91036728 40.1539808,4.96306147 40.6534397,5.06844986 C41.1528987,5.17383824 41.6437692,5.35330879 42.1260512,5.60686149 C42.4062004,5.74427642 42.598415,5.92779184 42.7026952,6.15740775 C42.8069754,6.38702366 42.8433793,6.62689028 42.8119069,6.87700761 C42.7804344,7.12712494 42.6928878,7.34887274 42.549267,7.54225101 C42.4056463,7.73562927 42.2200807,7.86340299 41.9925704,7.92557216 C41.76506,7.98774133 41.5085706,7.94834536 41.2231022,7.80738424 C40.950932,7.65844419 40.6706166,7.54673915 40.3821561,7.47226913 C40.0936955,7.3977991 39.8182562,7.36056409 39.555838,7.36056409 C39.1322897,7.36056409 38.758776,7.42727682 38.4352968,7.56070228 C38.1118177,7.69412775 37.8381514,7.88578832 37.6142981,8.13568402 C37.3904447,8.38557971 37.2202275,8.69404298 37.1036465,9.06107382 C36.9870654,9.42810466 36.9287749,9.85220702 36.9287749,10.3333809 C36.9287749,11.2720135 37.1572272,12.0093997 37.6141318,12.5455396 C38.0710365,13.0816794 38.7182719,13.3497494 39.555838,13.3497494 C39.8182562,13.3497494 40.0912575,13.316116 40.374842,13.2488491 C40.6584266,13.1815823 40.9411799,13.0712625 41.2231022,12.9178897 C41.5085706,12.7769286 41.762622,12.7399152 41.9852563,12.8068496 C42.2078907,12.873784 42.3885802,13.0039403 42.527325,13.1973185 C42.6660697,13.3906968 42.7463023,13.6124446 42.7680227,13.8625619 C42.7897432,14.1126793 42.7460253,14.3526013 42.6368691,14.582328 C42.5277128,14.8120548 42.3379362,14.9907496 42.0675391,15.1184125 C41.595009,15.3622131 41.1163286,15.5368077 40.6314977,15.6421961 C40.1466668,15.7475844 39.6835009,15.8002786 39.242,15.8002786 Z" id="Path"></path>
            <path d="M45.6378213,15.7577243 C45.1234019,15.7577243 44.7282785,15.6173727 44.4524513,15.3366695 C44.1766241,15.0559663 44.0387105,14.6513125 44.0387105,14.1227083 L44.0387105,2.01069068 C44.0387105,1.48208648 44.1766241,1.07987077 44.4524513,0.804043553 C44.7282785,0.528216332 45.1234019,0.390302721 45.6378213,0.390302721 C46.1522407,0.390302721 46.549802,0.528216332 46.8305053,0.804043553 C47.1112085,1.07987077 47.2515601,1.48208648 47.2515601,2.01069068 L47.2515601,7.09493217 L46.9403818,7.09493217 C47.2657449,6.38746693 47.7515732,5.84650647 48.3978666,5.4720508 C49.04416,5.09759512 49.7767811,4.91036728 50.5957297,4.91036728 C51.4326309,4.91036728 52.1205921,5.06972427 52.6596132,5.38843825 C53.1986344,5.70715222 53.6029002,6.19098575 53.8724108,6.83993883 C54.1419214,7.4888919 54.2766767,8.31127592 54.2766767,9.30709086 L54.2766767,14.1227083 C54.2766767,14.6513125 54.138763,15.0559663 53.8629358,15.3366695 C53.5871086,15.6173727 53.1920961,15.7577243 52.6778983,15.7577243 C52.1634789,15.7577243 51.7659175,15.6173727 51.4852143,15.3366695 C51.2045111,15.0559663 51.0641595,14.6513125 51.0641595,14.1227083 L51.0641595,9.44805198 C51.0641595,8.72374233 50.9327287,8.20051284 50.6698673,7.87836349 C50.4070058,7.55621414 50.007616,7.39513946 49.4716978,7.39513946 C48.798143,7.39513946 48.2597313,7.6087421 47.8564629,8.03594738 C47.4531944,8.46315266 47.2515601,9.03215019 47.2515601,9.74293999 L47.2515601,14.1227083 C47.2515601,15.212719 46.7136472,15.7577243 45.6378213,15.7577243 Z" id="Path"></path>
            <path d="M61.5344406,15.8002786 C60.5457181,15.8002786 59.7239436,15.6398135 59.0691171,15.3188831 C58.4142907,14.9979528 57.9279637,14.5227077 57.6101363,13.8931478 C57.2923089,13.263588 57.1333951,12.4776079 57.1333951,11.5352074 L57.1333951,7.52280236 L56.22014,7.52280236 C55.8218583,7.52280236 55.5138937,7.41863298 55.2962462,7.21029422 C55.0785987,7.00195546 54.9697749,6.70839728 54.9697749,6.32961968 C54.9697749,5.94109006 55.0785987,5.64509387 55.2962462,5.44163112 C55.5138937,5.23816838 55.8218583,5.136437 56.22014,5.136437 L57.1333951,5.136437 L57.1333951,3.50009118 C57.1333951,2.97148699 57.2737468,2.56927128 57.55445,2.29344406 C57.8351532,2.01761683 58.2327146,1.87970322 58.747134,1.87970322 C59.2613318,1.87970322 59.6563997,2.01761683 59.9323377,2.29344406 C60.2082758,2.56927128 60.3462448,2.97148699 60.3462448,3.50009118 L60.3462448,5.136437 L62.3482916,5.136437 C62.7507844,5.136437 63.0598017,5.23816838 63.2753437,5.44163112 C63.4908857,5.64509387 63.5986567,5.94109006 63.5986567,6.32961968 C63.5986567,6.70839728 63.4908857,7.00195546 63.2753437,7.21029422 C63.0598017,7.41863298 62.7507844,7.52280236 62.3482916,7.52280236 L60.3462448,7.52280236 L60.3462448,11.3995656 C60.3462448,12.0004234 60.4829394,12.4488505 60.7563286,12.7448466 C61.0297178,13.0408428 61.4686145,13.1888409 62.0730185,13.1888409 C62.2919958,13.1888409 62.4936855,13.1675638 62.6780875,13.1250095 C62.8624894,13.0824552 63.030047,13.056302 63.1807601,13.04655 C63.3775738,13.0323652 63.5405324,13.0933708 63.6696359,13.2295667 C63.7987394,13.3657626 63.8632912,13.6559409 63.8632912,14.1001014 C63.8632912,14.4505094 63.8082698,14.7534318 63.6982271,15.0088684 C63.5881843,15.264305 63.3904287,15.4456595 63.1049603,15.5529318 C62.9116928,15.6185363 62.65609,15.6761619 62.3381517,15.7258086 C62.0202135,15.7754553 61.7523098,15.8002786 61.5344406,15.8002786 Z" id="Path"></path>
            <path d="M69.064896,15.8002786 C68.0761735,15.8002786 67.254399,15.6398135 66.5995725,15.3188831 C65.9447461,14.9979528 65.4584191,14.5227077 65.1405917,13.8931478 C64.8227643,13.263588 64.6638505,12.4776079 64.6638505,11.5352074 L64.6638505,7.52280236 L63.7505954,7.52280236 C63.3523137,7.52280236 63.0443491,7.41863298 62.8267016,7.21029422 C62.6090541,7.00195546 62.5002303,6.70839728 62.5002303,6.32961968 C62.5002303,5.94109006 62.6090541,5.64509387 62.8267016,5.44163112 C63.0443491,5.23816838 63.3523137,5.136437 63.7505954,5.136437 L64.6638505,5.136437 L64.6638505,3.50009118 C64.6638505,2.97148699 64.8042022,2.56927128 65.0849054,2.29344406 C65.3656086,2.01761683 65.76317,1.87970322 66.2775894,1.87970322 C66.7917872,1.87970322 67.1868551,2.01761683 67.4627931,2.29344406 C67.7387312,2.56927128 67.8767002,2.97148699 67.8767002,3.50009118 L67.8767002,5.136437 L69.878747,5.136437 C70.2812398,5.136437 70.5902571,5.23816838 70.8057991,5.44163112 C71.0213411,5.64509387 71.1291121,5.94109006 71.1291121,6.32961968 C71.1291121,6.70839728 71.0213411,7.00195546 70.8057991,7.21029422 C70.5902571,7.41863298 70.2812398,7.52280236 69.878747,7.52280236 L67.8767002,7.52280236 L67.8767002,11.3995656 C67.8767002,12.0004234 68.0133948,12.4488505 68.286784,12.7448466 C68.5601732,13.0408428 68.9990699,13.1888409 69.6034739,13.1888409 C69.8224512,13.1888409 70.0241409,13.1675638 70.2085429,13.1250095 C70.3929448,13.0824552 70.5605024,13.056302 70.7112155,13.04655 C70.9080292,13.0323652 71.0709878,13.0933708 71.2000913,13.2295667 C71.3291948,13.3657626 71.3937466,13.6559409 71.3937466,14.1001014 C71.3937466,14.4505094 71.3387252,14.7534318 71.2286825,15.0088684 C71.1186397,15.264305 70.9208841,15.4456595 70.6354157,15.5529318 C70.4421482,15.6185363 70.1865454,15.6761619 69.8686071,15.7258086 C69.5506689,15.7754553 69.2827652,15.8002786 69.064896,15.8002786 Z" id="Path"></path>
            <path d="M74.1672941,15.7430963 C73.6528747,15.7430963 73.2577513,15.5909979 72.9819241,15.2868012 C72.7060969,14.9826044 72.5681833,14.5524624 72.5681833,13.9963753 L72.5681833,6.71427066 C72.5681833,6.14843145 72.7060969,5.71585148 72.9819241,5.41653073 C73.2577513,5.11720999 73.6528747,4.96754962 74.1672941,4.96754962 C74.6817135,4.96754962 75.0792749,5.11720999 75.3599781,5.41653073 C75.6406813,5.71585148 75.7810329,6.14843145 75.7810329,6.71427066 L75.7810329,13.9963753 C75.7810329,14.5524624 75.6442275,14.9826044 75.3706167,15.2868012 C75.0970058,15.5909979 74.6958983,15.7430963 74.1672941,15.7430963 Z M74.1672941,3.22182595 C73.5819508,3.22182595 73.1298668,3.08108647 72.811042,2.79960751 C72.4922172,2.51812854 72.3328048,2.12195244 72.3328048,1.6110792 C72.3328048,1.09045394 72.4922172,0.691784422 72.811042,0.415070653 C73.1298668,0.138356884 73.5819508,0 74.1672941,0 C74.7623894,0 75.2169114,0.138356884 75.5308602,0.415070653 C75.844809,0.691784422 76.0017834,1.09045394 76.0017834,1.6110792 C76.0017834,2.12195244 75.844809,2.51812854 75.5308602,2.79960751 C75.2169114,3.08108647 74.7623894,3.22182595 74.1672941,3.22182595 Z" id="Shape"></path>
            <path d="M77.0194829,19.5756429 C76.6453597,19.595147 76.3434347,19.5323683 76.1137079,19.3873069 C75.8839812,19.2422455 75.725677,19.0608911 75.6387953,18.8432435 C75.5519136,18.625596 75.5270903,18.4008007 75.5643253,18.1688576 C75.6015603,17.9369145 75.6998009,17.7364439 75.8590471,17.5674457 C76.0182932,17.3984475 76.226909,17.3046396 76.4848945,17.2860221 C77.0387653,17.2381485 77.4410918,17.0828364 77.6918741,16.8200858 C77.9426563,16.5573351 78.0680474,16.1583332 78.0680474,15.6230799 L78.0680474,6.57330954 C78.0680474,6.04470534 78.208399,5.64248964 78.4891023,5.36666241 C78.7698055,5.09083519 79.1673668,4.95292158 79.6817863,4.95292158 C80.1962057,4.95292158 80.591329,5.09083519 80.8671562,5.36666241 C81.1429835,5.64248964 81.2808971,6.04470534 81.2808971,6.57330954 L81.2808971,15.3225401 C81.2808971,16.2525289 81.1277459,17.023881 80.8214436,17.6365964 C80.5151413,18.2493119 80.0498699,18.7134751 79.4256293,19.0290862 C78.8013888,19.3446972 77.99934,19.5268828 77.0194829,19.5756429 Z M79.6605091,3.22182595 C79.0751659,3.22182595 78.6230818,3.08108647 78.304257,2.79960751 C77.9854322,2.51812854 77.8260198,2.12195244 77.8260198,1.6110792 C77.8260198,1.09045394 77.9854322,0.691784422 78.304257,0.415070653 C78.6230818,0.138356884 79.0751659,0 79.6605091,0 C80.2556044,0 80.7101264,0.138356884 81.0240752,0.415070653 C81.338024,0.691784422 81.4949984,1.09045394 81.4949984,1.6110792 C81.4949984,2.12195244 81.338024,2.51812854 81.0240752,2.79960751 C80.7101264,3.08108647 80.2556044,3.22182595 79.6605091,3.22182595 Z" id="Shape"></path>
            <path d="M87.5228486,15.8002786 C86.623889,15.8002786 85.8293204,15.5804148 85.1391429,15.140687 C84.4489653,14.7009592 83.911274,14.0710669 83.5260689,13.2510101 C83.1408639,12.4309533 82.9482613,11.4632862 82.9482613,10.3480089 C82.9482613,9.21854689 83.1408639,8.24977165 83.5260689,7.44168323 C83.911274,6.6335948 84.4478571,6.0096867 85.1358183,5.56995893 C85.8237795,5.13023117 86.6194563,4.91036728 87.5228486,4.91036728 C88.3482247,4.91036728 89.0780753,5.10978515 89.7124003,5.5086209 C90.3467253,5.90745664 90.7751496,6.42780486 90.9976731,7.06966556 L90.7569754,7.06966556 L90.7569754,2.01069068 C90.7569754,1.48208648 90.894889,1.07987077 91.1707162,0.804043553 C91.4465434,0.528216332 91.8416668,0.390302721 92.3560862,0.390302721 C92.8705056,0.390302721 93.2680115,0.528216332 93.548604,0.804043553 C93.8291964,1.07987077 93.9694926,1.48208648 93.9694926,2.01069068 L93.9694926,14.1227083 C93.9694926,14.6513125 93.8338508,15.0559663 93.5625671,15.3366695 C93.2912834,15.6173727 92.8984319,15.7577243 92.3840125,15.7577243 C91.869593,15.7577243 91.4755779,15.6173727 91.201967,15.3366695 C90.9283562,15.0559663 90.7915508,14.6513125 90.7915508,14.1227083 L90.7915508,12.676527 L91.0255994,13.5146473 C90.8216934,14.203495 90.3979235,14.7566455 89.7542897,15.1740988 C89.1106559,15.591552 88.3668422,15.8002786 87.5228486,15.8002786 Z M88.4942835,13.3989528 C88.9524071,13.3989528 89.354512,13.2879681 89.7005981,13.0659986 C90.0466843,12.8440292 90.3174693,12.5079167 90.5129531,12.0576612 C90.7084369,11.6074057 90.8061788,11.0375216 90.8061788,10.3480089 C90.8061788,9.30653677 90.5927978,8.54006069 90.1660358,8.04858069 C89.7392738,7.55710068 89.182023,7.31136068 88.4942835,7.31136068 C88.0405926,7.31136068 87.6395959,7.4199628 87.2912933,7.63716704 C86.9429908,7.85437128 86.6710977,8.18699298 86.4756139,8.63503213 C86.28013,9.08307129 86.1823881,9.65406356 86.1823881,10.3480089 C86.1823881,11.3797291 86.3957691,12.1461498 86.8225311,12.647271 C87.2492931,13.1483922 87.8065439,13.3989528 88.4942835,13.3989528 Z" id="Shape"></path>
            <path d="M101.572662,15.8002786 C100.346566,15.8002786 99.289081,15.5781984 98.4002059,15.1340379 C97.5113308,14.6898774 96.8274699,14.0602067 96.3486232,13.2450259 C95.8697765,12.4298451 95.6303532,11.4668324 95.6303532,10.3559879 C95.6303532,9.2779456 95.8604678,8.33244225 96.320697,7.51947781 C96.7809261,6.70651336 97.4157499,6.0684205 98.2251681,5.60519921 C99.0345864,5.14197793 99.9561529,4.91036728 100.989868,4.91036728 C101.749861,4.91036728 102.435273,5.03426235 103.046105,5.2820525 C103.656936,5.52984264 104.180443,5.88512672 104.616625,6.34790473 C105.052806,6.81068275 105.385317,7.37031612 105.614157,8.02680485 C105.842997,8.68329359 105.957417,9.42023654 105.957417,10.2376337 C105.957417,10.5062577 105.873195,10.7079474 105.704751,10.8427027 C105.536307,10.977458 105.286744,11.0448356 104.956062,11.0448356 L98.2793584,11.0448356 L98.2793584,9.38654772 L103.638541,9.38654772 L103.304755,9.67877608 C103.304755,9.09298954 103.22009,8.60688424 103.050759,8.22046016 C102.881429,7.83403609 102.637018,7.54047791 102.317529,7.33978562 C101.998039,7.13909334 101.60214,7.0387472 101.129832,7.0387472 C100.609428,7.0387472 100.163328,7.1592623 99.7915321,7.40029252 C99.419736,7.64132274 99.1361515,7.98807379 98.9407785,8.44054568 C98.7454055,8.89301758 98.647719,9.44240024 98.647719,10.0886937 L98.647719,10.2509319 C98.647719,11.3385046 98.8963403,12.1350679 99.3935829,12.6406219 C99.8908254,13.1461758 100.640235,13.3989528 101.641813,13.3989528 C101.98402,13.3989528 102.372273,13.3573404 102.806571,13.2741158 C103.240868,13.1908911 103.652614,13.0557479 104.041809,12.8686863 C104.375373,12.7117673 104.666714,12.6606246 104.915834,12.7152581 C105.164954,12.7698916 105.360217,12.8870268 105.501621,13.0666635 C105.643025,13.2463003 105.724588,13.4577974 105.746308,13.7011548 C105.768029,13.9445122 105.715722,14.1837139 105.589389,14.4187599 C105.463056,14.653806 105.254385,14.8471288 104.963376,14.9987285 C104.471341,15.2706771 103.923732,15.4722559 103.320547,15.603465 C102.717362,15.7346741 102.134734,15.8002786 101.572662,15.8002786 Z" id="Path"></path>
            <path d="M109.132109,15.7577243 C108.617689,15.7577243 108.222566,15.6173727 107.946739,15.3366695 C107.670912,15.0559663 107.532998,14.6513125 107.532998,14.1227083 L107.532998,6.57330954 C107.532998,6.04470534 107.669803,5.64248964 107.943414,5.36666241 C108.217025,5.09083519 108.603948,4.95292158 109.104183,4.95292158 C109.604417,4.95292158 109.990232,5.09083519 110.261626,5.36666241 C110.533021,5.64248964 110.668718,6.04470534 110.668718,6.57330954 L110.668718,7.79342111 L110.434669,7.09493217 C110.760032,6.38746693 111.245861,5.84650647 111.892154,5.4720508 C112.538448,5.09759512 113.271069,4.91036728 114.090017,4.91036728 C114.926918,4.91036728 115.61488,5.06972427 116.153901,5.38843825 C116.692922,5.70715222 117.097188,6.19098575 117.366698,6.83993883 C117.636209,7.4888919 117.770964,8.31127592 117.770964,9.30709086 L117.770964,14.1227083 C117.770964,14.6513125 117.633051,15.0559663 117.357223,15.3366695 C117.081396,15.6173727 116.686384,15.7577243 116.172186,15.7577243 C115.657766,15.7577243 115.260205,15.6173727 114.979502,15.3366695 C114.698799,15.0559663 114.558447,14.6513125 114.558447,14.1227083 L114.558447,9.44805198 C114.558447,8.72374233 114.427016,8.20051284 114.164155,7.87836349 C113.901293,7.55621414 113.501903,7.39513946 112.965985,7.39513946 C112.29243,7.39513946 111.754019,7.6087421 111.35075,8.03594738 C110.947482,8.46315266 110.745848,9.03215019 110.745848,9.74293999 L110.745848,14.1227083 C110.745848,15.212719 110.207935,15.7577243 109.132109,15.7577243 Z" id="Path"></path>
            <path d="M127.1303,15.7430963 C126.615881,15.7430963 126.220757,15.5909979 125.94493,15.2868012 C125.669103,14.9826044 125.531189,14.5524624 125.531189,13.9963753 L125.531189,6.71427066 C125.531189,6.14843145 125.669103,5.71585148 125.94493,5.41653073 C126.220757,5.11720999 126.615881,4.96754962 127.1303,4.96754962 C127.644719,4.96754962 128.042281,5.11720999 128.322984,5.41653073 C128.603687,5.71585148 128.744039,6.14843145 128.744039,6.71427066 L128.744039,13.9963753 C128.744039,14.5524624 128.607233,14.9826044 128.333623,15.2868012 C128.060012,15.5909979 127.658904,15.7430963 127.1303,15.7430963 Z M127.1303,3.22182595 C126.544957,3.22182595 126.092873,3.08108647 125.774048,2.79960751 C125.455223,2.51812854 125.295811,2.12195244 125.295811,1.6110792 C125.295811,1.09045394 125.455223,0.691784422 125.774048,0.415070653 C126.092873,0.138356884 126.544957,0 127.1303,0 C127.725395,0 128.179917,0.138356884 128.493866,0.415070653 C128.807815,0.691784422 128.964789,1.09045394 128.964789,1.6110792 C128.964789,2.12195244 128.807815,2.51812854 128.493866,2.79960751 C128.179917,3.08108647 127.725395,3.22182595 127.1303,3.22182595 Z" id="Shape"></path>
            <path d="M132.531757,15.7577243 C132.017338,15.7577243 131.622215,15.6173727 131.346387,15.3366695 C131.07056,15.0559663 130.932647,14.6513125 130.932647,14.1227083 L130.932647,6.57330954 C130.932647,6.04470534 131.069452,5.64248964 131.343063,5.36666241 C131.616674,5.09083519 132.003596,4.95292158 132.503831,4.95292158 C133.004066,4.95292158 133.38988,5.09083519 133.661275,5.36666241 C133.932669,5.64248964 134.068367,6.04470534 134.068367,6.57330954 L134.068367,7.79342111 L133.834318,7.09493217 C134.159681,6.38746693 134.645509,5.84650647 135.291803,5.4720508 C135.938096,5.09759512 136.670717,4.91036728 137.489666,4.91036728 C138.326567,4.91036728 139.014528,5.06972427 139.553549,5.38843825 C140.09257,5.70715222 140.496836,6.19098575 140.766347,6.83993883 C141.035857,7.4888919 141.170613,8.31127592 141.170613,9.30709086 L141.170613,14.1227083 C141.170613,14.6513125 141.032699,15.0559663 140.756872,15.3366695 C140.481045,15.6173727 140.086032,15.7577243 139.571834,15.7577243 C139.057415,15.7577243 138.659854,15.6173727 138.37915,15.3366695 C138.098447,15.0559663 137.958096,14.6513125 137.958096,14.1227083 L137.958096,9.44805198 C137.958096,8.72374233 137.826665,8.20051284 137.563803,7.87836349 C137.300942,7.55621414 136.901552,7.39513946 136.365634,7.39513946 C135.692079,7.39513946 135.153667,7.6087421 134.750399,8.03594738 C134.34713,8.46315266 134.145496,9.03215019 134.145496,9.74293999 L134.145496,14.1227083 C134.145496,15.212719 133.607583,15.7577243 132.531757,15.7577243 Z" id="Path"></path>
            <path d="M152.977486,15.8002786 C152.078526,15.8002786 151.283958,15.5804148 150.59378,15.140687 C149.903602,14.7009592 149.365911,14.0710669 148.980706,13.2510101 C148.595501,12.4309533 148.402898,11.4632862 148.402898,10.3480089 C148.402898,9.21854689 148.595501,8.24977165 148.980706,7.44168323 C149.365911,6.6335948 149.902494,6.0096867 150.590455,5.56995893 C151.278417,5.13023117 152.074093,4.91036728 152.977486,4.91036728 C153.802862,4.91036728 154.532712,5.10978515 155.167037,5.5086209 C155.801362,5.90745664 156.229787,6.42780486 156.45231,7.06966556 L156.211613,7.06966556 L156.211613,2.01069068 C156.211613,1.48208648 156.349526,1.07987077 156.625353,0.804043553 C156.901181,0.528216332 157.296304,0.390302721 157.810723,0.390302721 C158.325143,0.390302721 158.722649,0.528216332 159.003241,0.804043553 C159.283834,1.07987077 159.42413,1.48208648 159.42413,2.01069068 L159.42413,14.1227083 C159.42413,14.6513125 159.288488,15.0559663 159.017204,15.3366695 C158.745921,15.6173727 158.353069,15.7577243 157.83865,15.7577243 C157.32423,15.7577243 156.930215,15.6173727 156.656604,15.3366695 C156.382993,15.0559663 156.246188,14.6513125 156.246188,14.1227083 L156.246188,12.676527 L156.480237,13.5146473 C156.276331,14.203495 155.852561,14.7566455 155.208927,15.1740988 C154.565293,15.591552 153.821479,15.8002786 152.977486,15.8002786 Z M153.948921,13.3989528 C154.407044,13.3989528 154.809149,13.2879681 155.155235,13.0659986 C155.501321,12.8440292 155.772106,12.5079167 155.96759,12.0576612 C156.163074,11.6074057 156.260816,11.0375216 156.260816,10.3480089 C156.260816,9.30653677 156.047435,8.54006069 155.620673,8.04858069 C155.193911,7.55710068 154.63666,7.31136068 153.948921,7.31136068 C153.49523,7.31136068 153.094233,7.4199628 152.745931,7.63716704 C152.397628,7.85437128 152.125735,8.18699298 151.930251,8.63503213 C151.734767,9.08307129 151.637025,9.65406356 151.637025,10.3480089 C151.637025,11.3797291 151.850406,12.1461498 152.277168,12.647271 C152.70393,13.1483922 153.261181,13.3989528 153.948921,13.3989528 Z" id="Shape"></path>
            <path d="M167.027299,15.8002786 C165.801204,15.8002786 164.743718,15.5781984 163.854843,15.1340379 C162.965968,14.6898774 162.282107,14.0602067 161.80326,13.2450259 C161.324414,12.4298451 161.08499,11.4668324 161.08499,10.3559879 C161.08499,9.2779456 161.315105,8.33244225 161.775334,7.51947781 C162.235563,6.70651336 162.870387,6.0684205 163.679805,5.60519921 C164.489224,5.14197793 165.41079,4.91036728 166.444505,4.91036728 C167.204498,4.91036728 167.889911,5.03426235 168.500742,5.2820525 C169.111574,5.52984264 169.63508,5.88512672 170.071262,6.34790473 C170.507443,6.81068275 170.839954,7.37031612 171.068794,8.02680485 C171.297634,8.68329359 171.412055,9.42023654 171.412055,10.2376337 C171.412055,10.5062577 171.327833,10.7079474 171.159388,10.8427027 C170.990944,10.977458 170.741381,11.0448356 170.410699,11.0448356 L163.733996,11.0448356 L163.733996,9.38654772 L169.093178,9.38654772 L168.759392,9.67877608 C168.759392,9.09298954 168.674727,8.60688424 168.505396,8.22046016 C168.336066,7.83403609 168.091656,7.54047791 167.772166,7.33978562 C167.452676,7.13909334 167.056777,7.0387472 166.584469,7.0387472 C166.064065,7.0387472 165.617965,7.1592623 165.246169,7.40029252 C164.874373,7.64132274 164.590789,7.98807379 164.395416,8.44054568 C164.200043,8.89301758 164.102356,9.44240024 164.102356,10.0886937 L164.102356,10.2509319 C164.102356,11.3385046 164.350977,12.1350679 164.84822,12.6406219 C165.345463,13.1461758 166.094873,13.3989528 167.09645,13.3989528 C167.438658,13.3989528 167.82691,13.3573404 168.261208,13.2741158 C168.695506,13.1908911 169.107252,13.0557479 169.496446,12.8686863 C169.83001,12.7117673 170.121352,12.6606246 170.370472,12.7152581 C170.619592,12.7698916 170.814854,12.8870268 170.956258,13.0666635 C171.097663,13.2463003 171.179225,13.4577974 171.200945,13.7011548 C171.222666,13.9445122 171.170359,14.1837139 171.044026,14.4187599 C170.917693,14.653806 170.709022,14.8471288 170.418013,14.9987285 C169.925979,15.2706771 169.378369,15.4722559 168.775184,15.603465 C168.171999,15.7346741 167.589371,15.8002786 167.027299,15.8002786 Z" id="Path"></path>
            <path d="M174.586746,15.7577243 C174.072327,15.7577243 173.677203,15.6173727 173.401376,15.3366695 C173.125549,15.0559663 172.987635,14.6513125 172.987635,14.1227083 L172.987635,6.57330954 C172.987635,6.04470534 173.124441,5.64248964 173.398051,5.36666241 C173.671662,5.09083519 174.058585,4.95292158 174.55882,4.95292158 C175.059054,4.95292158 175.444869,5.09083519 175.716263,5.36666241 C175.987658,5.64248964 176.123355,6.04470534 176.123355,6.57330954 L176.123355,7.79342111 L175.889306,7.09493217 C176.21467,6.38746693 176.700498,5.84650647 177.346791,5.4720508 C177.993085,5.09759512 178.725706,4.91036728 179.544654,4.91036728 C180.381556,4.91036728 181.069517,5.06972427 181.608538,5.38843825 C182.147559,5.70715222 182.551825,6.19098575 182.821335,6.83993883 C183.090846,7.4888919 183.225601,8.31127592 183.225601,9.30709086 L183.225601,14.1227083 C183.225601,14.6513125 183.087688,15.0559663 182.81186,15.3366695 C182.536033,15.6173727 182.141021,15.7577243 181.626823,15.7577243 C181.112404,15.7577243 180.714842,15.6173727 180.434139,15.3366695 C180.153436,15.0559663 180.013084,14.6513125 180.013084,14.1227083 L180.013084,9.44805198 C180.013084,8.72374233 179.881653,8.20051284 179.618792,7.87836349 C179.35593,7.55621414 178.956541,7.39513946 178.420622,7.39513946 C177.747068,7.39513946 177.208656,7.6087421 176.805388,8.03594738 C176.402119,8.46315266 176.200485,9.03215019 176.200485,9.74293999 L176.200485,14.1227083 C176.200485,15.212719 175.662572,15.7577243 174.586746,15.7577243 Z" id="Path"></path>
            <path d="M192.981224,15.5742089 C192.419818,15.5742089 191.990562,15.4256567 191.693458,15.1285524 C191.396353,14.831448 191.247801,14.4021926 191.247801,13.8407861 L191.247801,2.30724096 C191.247801,1.74583449 191.396353,1.31657907 191.693458,1.0194747 C191.990562,0.722370326 192.419818,0.57381814 192.981224,0.57381814 L200.397308,0.57381814 C200.823073,0.57381814 201.148325,0.683805491 201.373065,0.903780193 C201.597805,1.1237549 201.710175,1.43942136 201.710175,1.8507796 C201.710175,2.2721115 201.597805,2.5952028 201.373065,2.82005352 C201.148325,3.04490423 200.823073,3.15732959 200.397308,3.15732959 L194.411448,3.15732959 L194.411448,6.66539971 L199.922562,6.66539971 C200.357857,6.66539971 200.685492,6.77533165 200.905466,6.99519553 C201.125441,7.21505941 201.235428,7.53565731 201.235428,7.9569892 C201.235428,8.3783211 201.125441,8.69891899 200.905466,8.91878288 C200.685492,9.13864676 200.357857,9.2485787 199.922562,9.2485787 L194.411448,9.2485787 L194.411448,12.9906975 L200.397308,12.9906975 C200.823073,12.9906975 201.148325,13.1006848 201.373065,13.3206595 C201.597805,13.5406342 201.710175,13.8612875 201.710175,14.2826194 C201.710175,14.7037297 201.597805,15.0242722 201.373065,15.2442469 C201.148325,15.4642216 200.823073,15.5742089 200.397308,15.5742089 L192.981224,15.5742089 Z" id="Path"></path>
            <path d="M205.873682,15.7577243 C205.359263,15.7577243 204.961702,15.6173727 204.680998,15.3366695 C204.400295,15.0559663 204.259943,14.6513125 204.259943,14.1227083 L204.259943,7.52280236 L203.494299,7.52280236 C203.096239,7.52280236 202.789438,7.41863298 202.573896,7.21029422 C202.358354,7.00195546 202.250583,6.70839728 202.250583,6.32961968 C202.250583,5.94109006 202.358354,5.64509387 202.573896,5.44163112 C202.789438,5.23816838 203.096239,5.136437 203.494299,5.136437 L205.192481,5.136437 L204.259943,5.98519581 L204.259943,5.3216147 C204.259943,3.80739085 204.640937,2.67166756 205.402925,1.91444482 C206.164913,1.15722208 207.283183,0.70591378 208.757734,0.560519921 L209.434613,0.496688471 C209.798319,0.459453459 210.089716,0.511094875 210.308805,0.65161272 C210.527893,0.792130565 210.67578,0.97592303 210.752466,1.20299012 C210.829153,1.4300572 210.845111,1.66288685 210.80034,1.90147906 C210.755569,2.14007127 210.656941,2.34602743 210.504455,2.51934755 C210.351968,2.69266766 210.153714,2.78863648 209.909692,2.80725398 L209.611812,2.82853113 C208.843396,2.8852702 208.294789,3.06651384 207.965991,3.37226205 C207.637192,3.67801027 207.472793,4.13929223 207.472793,4.75610794 L207.472793,5.49681873 L207.078833,5.136437 L208.994774,5.136437 C209.397267,5.136437 209.705176,5.23816838 209.918502,5.44163112 C210.131827,5.64509387 210.23849,5.94109006 210.23849,6.32961968 C210.23849,6.70839728 210.131827,7.00195546 209.918502,7.21029422 C209.705176,7.41863298 209.397267,7.52280236 208.994774,7.52280236 L207.472793,7.52280236 L207.472793,14.1227083 C207.472793,15.212719 206.939756,15.7577243 205.873682,15.7577243 Z" id="Path"></path>
            <path d="M215.788727,15.8002786 C214.800004,15.8002786 213.978229,15.6398135 213.323403,15.3188831 C212.668577,14.9979528 212.18225,14.5227077 211.864422,13.8931478 C211.546595,13.263588 211.387681,12.4776079 211.387681,11.5352074 L211.387681,7.52280236 L210.474426,7.52280236 C210.076144,7.52280236 209.76818,7.41863298 209.550532,7.21029422 C209.332885,7.00195546 209.224061,6.70839728 209.224061,6.32961968 C209.224061,5.94109006 209.332885,5.64509387 209.550532,5.44163112 C209.76818,5.23816838 210.076144,5.136437 210.474426,5.136437 L211.387681,5.136437 L211.387681,3.50009118 C211.387681,2.97148699 211.528033,2.56927128 211.808736,2.29344406 C212.089439,2.01761683 212.487,1.87970322 213.00142,1.87970322 C213.515618,1.87970322 213.910686,2.01761683 214.186624,2.29344406 C214.462562,2.56927128 214.600531,2.97148699 214.600531,3.50009118 L214.600531,5.136437 L216.602578,5.136437 C217.00507,5.136437 217.314088,5.23816838 217.52963,5.44163112 C217.745172,5.64509387 217.852943,5.94109006 217.852943,6.32961968 C217.852943,6.70839728 217.745172,7.00195546 217.52963,7.21029422 C217.314088,7.41863298 217.00507,7.52280236 216.602578,7.52280236 L214.600531,7.52280236 L214.600531,11.3995656 C214.600531,12.0004234 214.737225,12.4488505 215.010615,12.7448466 C215.284004,13.0408428 215.7229,13.1888409 216.327304,13.1888409 C216.546282,13.1888409 216.747971,13.1675638 216.932373,13.1250095 C217.116775,13.0824552 217.284333,13.056302 217.435046,13.04655 C217.63186,13.0323652 217.794818,13.0933708 217.923922,13.2295667 C218.053025,13.3657626 218.117577,13.6559409 218.117577,14.1001014 C218.117577,14.4505094 218.062556,14.7534318 217.952513,15.0088684 C217.84247,15.264305 217.644715,15.4456595 217.359246,15.5529318 C217.165979,15.6185363 216.910376,15.6761619 216.592438,15.7258086 C216.274499,15.7754553 216.006596,15.8002786 215.788727,15.8002786 Z" id="Path"></path>
            <path d="M224.276742,15.8002786 C223.050646,15.8002786 221.993161,15.5781984 221.104286,15.1340379 C220.215411,14.6898774 219.53155,14.0602067 219.052703,13.2450259 C218.573856,12.4298451 218.334433,11.4668324 218.334433,10.3559879 C218.334433,9.2779456 218.564548,8.33244225 219.024777,7.51947781 C219.485006,6.70651336 220.11983,6.0684205 220.929248,5.60519921 C221.738666,5.14197793 222.660233,4.91036728 223.693948,4.91036728 C224.453941,4.91036728 225.139353,5.03426235 225.750185,5.2820525 C226.361016,5.52984264 226.884523,5.88512672 227.320704,6.34790473 C227.756886,6.81068275 228.089397,7.37031612 228.318237,8.02680485 C228.547077,8.68329359 228.661497,9.42023654 228.661497,10.2376337 C228.661497,10.5062577 228.577275,10.7079474 228.408831,10.8427027 C228.240387,10.977458 227.990824,11.0448356 227.660141,11.0448356 L220.983438,11.0448356 L220.983438,9.38654772 L226.34262,9.38654772 L226.008835,9.67877608 C226.008835,9.09298954 225.92417,8.60688424 225.754839,8.22046016 C225.585508,7.83403609 225.341098,7.54047791 225.021608,7.33978562 C224.702119,7.13909334 224.30622,7.0387472 223.833911,7.0387472 C223.313508,7.0387472 222.867408,7.1592623 222.495612,7.40029252 C222.123816,7.64132274 221.840231,7.98807379 221.644858,8.44054568 C221.449485,8.89301758 221.351799,9.44240024 221.351799,10.0886937 L221.351799,10.2509319 C221.351799,11.3385046 221.60042,12.1350679 222.097663,12.6406219 C222.594905,13.1461758 223.344315,13.3989528 224.345893,13.3989528 C224.6881,13.3989528 225.076353,13.3573404 225.51065,13.2741158 C225.944948,13.1908911 226.356694,13.0557479 226.745889,12.8686863 C227.079452,12.7117673 227.370794,12.6606246 227.619914,12.7152581 C227.869034,12.7698916 228.064296,12.8870268 228.205701,13.0666635 C228.347105,13.2463003 228.428668,13.4577974 228.450388,13.7011548 C228.472108,13.9445122 228.419802,14.1837139 228.293469,14.4187599 C228.167136,14.653806 227.958465,14.8471288 227.667455,14.9987285 C227.175421,15.2706771 226.627812,15.4722559 226.024627,15.603465 C225.421442,15.7346741 224.838813,15.8002786 224.276742,15.8002786 Z" id="Path"></path>
            <path d="M234.003798,15.8002786 C232.733153,15.8002786 231.787705,15.4489286 231.167454,14.7462286 C230.547203,14.0435285 230.237078,12.9975682 230.237078,11.6083476 L230.237078,2.01069068 C230.237078,1.48208648 230.374991,1.07987077 230.650819,0.804043553 C230.926646,0.528216332 231.321769,0.390302721 231.836189,0.390302721 C232.350608,0.390302721 232.748169,0.528216332 233.028873,0.804043553 C233.309576,1.07987077 233.449927,1.48208648 233.449927,2.01069068 L233.449927,11.4873338 C233.449927,12.0731204 233.571551,12.5042597 233.814797,12.7807518 C234.058044,13.057244 234.388338,13.19549 234.805681,13.19549 C234.914726,13.19549 235.021112,13.1886193 235.124838,13.1748778 C235.228564,13.1611363 235.334507,13.1493895 235.442665,13.1396375 C235.66807,13.1201335 235.827316,13.1900045 235.920404,13.3492507 C236.013492,13.5084969 236.060035,13.8338045 236.060035,14.3251737 C236.060035,14.746284 235.975813,15.0683779 235.807369,15.2914555 C235.638925,15.5145332 235.37152,15.6562146 235.005154,15.7164999 C234.876605,15.7306846 234.719907,15.7481939 234.535062,15.7690278 C234.350217,15.7898617 234.173129,15.8002786 234.003798,15.8002786 Z" id="Path"></path>
            <path d="M238.626042,15.7430963 C238.111623,15.7430963 237.716499,15.5909979 237.440672,15.2868012 C237.164845,14.9826044 237.026931,14.5524624 237.026931,13.9963753 L237.026931,6.71427066 C237.026931,6.14843145 237.164845,5.71585148 237.440672,5.41653073 C237.716499,5.11720999 238.111623,4.96754962 238.626042,4.96754962 C239.140462,4.96754962 239.538023,5.11720999 239.818726,5.41653073 C240.099429,5.71585148 240.239781,6.14843145 240.239781,6.71427066 L240.239781,13.9963753 C240.239781,14.5524624 240.102976,14.9826044 239.829365,15.2868012 C239.555754,15.5909979 239.154646,15.7430963 238.626042,15.7430963 Z M238.626042,3.22182595 C238.040699,3.22182595 237.588615,3.08108647 237.26979,2.79960751 C236.950965,2.51812854 236.791553,2.12195244 236.791553,1.6110792 C236.791553,1.09045394 236.950965,0.691784422 237.26979,0.415070653 C237.588615,0.138356884 238.040699,0 238.626042,0 C239.221138,0 239.67566,0.138356884 239.989608,0.415070653 C240.303557,0.691784422 240.460532,1.09045394 240.460532,1.6110792 C240.460532,2.12195244 240.303557,2.51812854 239.989608,2.79960751 C239.67566,3.08108647 239.221138,3.22182595 238.626042,3.22182595 Z" id="Shape"></path>
            <path d="M244.0275,15.7577243 C243.51308,15.7577243 243.117957,15.6173727 242.84213,15.3366695 C242.566302,15.0559663 242.428389,14.6513125 242.428389,14.1227083 L242.428389,6.57330954 C242.428389,6.04470534 242.565194,5.64248964 242.838805,5.36666241 C243.112416,5.09083519 243.499339,4.95292158 243.999573,4.95292158 C244.499808,4.95292158 244.885623,5.09083519 245.157017,5.36666241 C245.428412,5.64248964 245.564109,6.04470534 245.564109,6.57330954 L245.564109,7.79342111 L245.33006,7.09493217 C245.655423,6.38746693 246.141251,5.84650647 246.787545,5.4720508 C247.433838,5.09759512 248.166459,4.91036728 248.985408,4.91036728 C249.822309,4.91036728 250.51027,5.06972427 251.049292,5.38843825 C251.588313,5.70715222 251.992579,6.19098575 252.262089,6.83993883 C252.5316,7.4888919 252.666355,8.31127592 252.666355,9.30709086 L252.666355,14.1227083 C252.666355,14.6513125 252.528441,15.0559663 252.252614,15.3366695 C251.976787,15.6173727 251.581774,15.7577243 251.067577,15.7577243 C250.553157,15.7577243 250.155596,15.6173727 249.874893,15.3366695 C249.594189,15.0559663 249.453838,14.6513125 249.453838,14.1227083 L249.453838,9.44805198 C249.453838,8.72374233 249.322407,8.20051284 249.059546,7.87836349 C248.796684,7.55621414 248.397294,7.39513946 247.861376,7.39513946 C247.187821,7.39513946 246.64941,7.6087421 246.246141,8.03594738 C245.842873,8.46315266 245.641238,9.03215019 245.641238,9.74293999 L245.641238,14.1227083 C245.641238,15.212719 245.103325,15.7577243 244.0275,15.7577243 Z" id="Path"></path>
            <path d="M259.815738,19.6301656 C259.045328,19.6301656 258.310879,19.5669991 257.61239,19.440666 C256.913901,19.3143329 256.293816,19.1267172 255.752135,18.8778189 C255.415912,18.7359712 255.182805,18.5490759 255.052815,18.3171328 C254.922825,18.0851897 254.868912,17.8441595 254.891076,17.5940421 C254.913239,17.3439248 254.996132,17.119739 255.139752,16.9214847 C255.283373,16.7232304 255.468939,16.5824355 255.696449,16.4991 C255.923959,16.4157645 256.166264,16.4330522 256.423363,16.5509631 C257.047493,16.8319988 257.627517,17.0152371 258.163435,17.1006782 C258.699353,17.1861193 259.154817,17.2288398 259.529827,17.2288398 C260.444523,17.2288398 261.128383,17.0227728 261.581409,16.6106388 C262.034435,16.1985049 262.260948,15.5718817 262.260948,14.7307694 L262.260948,13.1024025 L262.445794,13.1024025 C262.228589,13.7637673 261.78864,14.2974137 261.125945,14.7033418 C260.463251,15.1092699 259.726308,15.312234 258.915117,15.312234 C257.983355,15.312234 257.168839,15.0959163 256.471569,14.6632809 C255.774299,14.2306455 255.233061,13.6231386 254.847856,12.84076 C254.462651,12.0583815 254.270049,11.1472319 254.270049,10.1073112 C254.270049,9.32271627 254.381089,8.61259139 254.603169,7.97693653 C254.825249,7.34128167 255.139531,6.79538979 255.546013,6.33926089 C255.952495,5.88313199 256.44187,5.53095083 257.014136,5.28271741 C257.586403,5.03448399 258.220063,4.91036728 258.915117,4.91036728 C259.754677,4.91036728 260.497605,5.11222316 261.143898,5.51593492 C261.790191,5.91964668 262.214848,6.4471981 262.417867,7.09858918 L262.211745,7.79741058 L262.211745,6.57330954 C262.211745,6.04470534 262.352097,5.64248964 262.6328,5.36666241 C262.913503,5.09083519 263.303972,4.95292158 263.804207,4.95292158 C264.318626,4.95292158 264.711533,5.09083519 264.982928,5.36666241 C265.254322,5.64248964 265.390019,6.04470534 265.390019,6.57330954 L265.390019,14.3584193 C265.390019,16.1084649 264.912059,17.4246007 263.956139,18.3068266 C263.000219,19.1890526 261.620085,19.6301656 259.815738,19.6301656 Z M259.865274,12.9109082 C260.351767,12.9109082 260.770274,12.7988153 261.120792,12.5746294 C261.471311,12.3504436 261.743204,12.0285159 261.936472,11.6088463 C262.129739,11.1891767 262.226373,10.688665 262.226373,10.1073112 C262.226373,9.23073693 262.012992,8.54560161 261.58623,8.05190524 C261.159468,7.55820887 260.585816,7.31136068 259.865274,7.31136068 C259.383214,7.31136068 258.965816,7.42350899 258.613081,7.64780562 C258.260346,7.87210224 257.987344,8.19164736 257.794077,8.60644096 C257.600809,9.02123457 257.504176,9.52152464 257.504176,10.1073112 C257.504176,10.9838854 257.717557,11.6702952 258.144319,12.1665404 C258.571081,12.6627856 259.144732,12.9109082 259.865274,12.9109082 Z" id="Shape"></path>
        </g>
    </g>
</svg>